<svg id="visual" viewBox="0 0 3024 1964" width="3024" height="1964" xmlns="http://www.w3.org/2000/svg" xmlns:xlink="http://www.w3.org/1999/xlink" version="1.1"><rect x="0" y="0" width="3024" height="1964" fill="#001220"></rect><defs><linearGradient id="grad1_0" x1="35.1%" y1="0%" x2="100%" y2="100%"><stop offset="19.20570264765784%" stop-color="#c026d3" stop-opacity="1"></stop><stop offset="80.79429735234216%" stop-color="#c026d3" stop-opacity="1"></stop></linearGradient></defs><defs><linearGradient id="grad1_1" x1="35.1%" y1="0%" x2="100%" y2="100%"><stop offset="19.20570264765784%" stop-color="#c026d3" stop-opacity="1"></stop><stop offset="80.79429735234216%" stop-color="#6b3db7" stop-opacity="1"></stop></linearGradient></defs><defs><linearGradient id="grad1_2" x1="35.1%" y1="0%" x2="100%" y2="100%"><stop offset="19.20570264765784%" stop-color="#1e388b" stop-opacity="1"></stop><stop offset="80.79429735234216%" stop-color="#6b3db7" stop-opacity="1"></stop></linearGradient></defs><defs><linearGradient id="grad1_3" x1="35.1%" y1="0%" x2="100%" y2="100%"><stop offset="19.20570264765784%" stop-color="#1e388b" stop-opacity="1"></stop><stop offset="80.79429735234216%" stop-color="#002855" stop-opacity="1"></stop></linearGradient></defs><defs><linearGradient id="grad1_4" x1="35.1%" y1="0%" x2="100%" y2="100%"><stop offset="19.20570264765784%" stop-color="#001220" stop-opacity="1"></stop><stop offset="80.79429735234216%" stop-color="#002855" stop-opacity="1"></stop></linearGradient></defs><defs><linearGradient id="grad2_0" x1="0%" y1="0%" x2="64.9%" y2="100%"><stop offset="19.20570264765784%" stop-color="#c026d3" stop-opacity="1"></stop><stop offset="80.79429735234216%" stop-color="#c026d3" stop-opacity="1"></stop></linearGradient></defs><defs><linearGradient id="grad2_1" x1="0%" y1="0%" x2="64.9%" y2="100%"><stop offset="19.20570264765784%" stop-color="#6b3db7" stop-opacity="1"></stop><stop offset="80.79429735234216%" stop-color="#c026d3" stop-opacity="1"></stop></linearGradient></defs><defs><linearGradient id="grad2_2" x1="0%" y1="0%" x2="64.9%" y2="100%"><stop offset="19.20570264765784%" stop-color="#6b3db7" stop-opacity="1"></stop><stop offset="80.79429735234216%" stop-color="#1e388b" stop-opacity="1"></stop></linearGradient></defs><defs><linearGradient id="grad2_3" x1="0%" y1="0%" x2="64.9%" y2="100%"><stop offset="19.20570264765784%" stop-color="#002855" stop-opacity="1"></stop><stop offset="80.79429735234216%" stop-color="#1e388b" stop-opacity="1"></stop></linearGradient></defs><defs><linearGradient id="grad2_4" x1="0%" y1="0%" x2="64.9%" y2="100%"><stop offset="19.20570264765784%" stop-color="#002855" stop-opacity="1"></stop><stop offset="80.79429735234216%" stop-color="#001220" stop-opacity="1"></stop></linearGradient></defs><g transform="translate(3024, 0)"><path d="M0 1802.9C-268.6 1808.9 -537.1 1814.9 -689.9 1665.7C-842.8 1516.5 -879.9 1212.1 -1039.4 1039.4C-1199 866.8 -1481.1 826 -1628.8 674.7C-1776.5 523.4 -1789.7 261.7 -1802.9 0L0 0Z" fill="#001e3a"></path><path d="M0 1442.3C-214.8 1447.1 -429.7 1451.9 -552 1332.5C-674.2 1213.2 -703.9 969.7 -831.6 831.6C-959.2 693.5 -1184.9 660.8 -1303 539.7C-1421.2 418.7 -1431.7 209.4 -1442.3 0L0 0Z" fill="#003170"></path><path d="M0 1081.7C-161.1 1085.3 -322.3 1088.9 -414 999.4C-505.7 909.9 -527.9 727.2 -623.7 623.7C-719.4 520.1 -888.7 495.6 -977.3 404.8C-1065.9 314 -1073.8 157 -1081.7 0L0 0Z" fill="#443da3"></path><path d="M0 721.2C-107.4 723.6 -214.8 725.9 -276 666.3C-337.1 606.6 -351.9 484.8 -415.8 415.8C-479.6 346.7 -592.5 330.4 -651.5 269.9C-710.6 209.4 -715.9 104.7 -721.2 0L0 0Z" fill="#9537c8"></path><path d="M0 360.6C-53.7 361.8 -107.4 363 -138 333.1C-168.6 303.3 -176 242.4 -207.9 207.9C-239.8 173.4 -296.2 165.2 -325.8 134.9C-355.3 104.7 -357.9 52.3 -360.6 0L0 0Z" fill="#c026d3"></path></g><g transform="translate(0, 1964)"><path d="M0 -1802.9C229.1 -1734.2 458.3 -1665.5 644.4 -1555.8C830.6 -1446.1 973.8 -1295.3 1154 -1154C1334.2 -1012.7 1551.4 -880.7 1665.7 -689.9C1780 -499.2 1791.4 -249.6 1802.9 0L0 0Z" fill="#001e3a"></path><path d="M0 -1442.3C183.3 -1387.4 366.6 -1332.4 515.6 -1244.7C664.5 -1156.9 779 -1036.3 923.2 -923.2C1067.3 -810.1 1241.1 -704.6 1332.5 -552C1424 -399.3 1433.2 -199.7 1442.3 0L0 0Z" fill="#003170"></path><path d="M0 -1081.7C137.5 -1040.5 275 -999.3 386.7 -933.5C498.4 -867.7 584.3 -777.2 692.4 -692.4C800.5 -607.6 930.8 -528.4 999.4 -414C1068 -299.5 1074.9 -149.8 1081.7 0L0 0Z" fill="#443da3"></path><path d="M0 -721.2C91.7 -693.7 183.3 -666.2 257.8 -622.3C332.2 -578.4 389.5 -518.1 461.6 -461.6C533.7 -405.1 620.5 -352.3 666.3 -276C712 -199.7 716.6 -99.8 721.2 0L0 0Z" fill="#9537c8"></path><path d="M0 -360.6C45.8 -346.8 91.7 -333.1 128.9 -311.2C166.1 -289.2 194.8 -259.1 230.8 -230.8C266.8 -202.5 310.3 -176.1 333.1 -138C356 -99.8 358.3 -49.9 360.6 0L0 0Z" fill="#c026d3"></path></g></svg>